<?xml version="1.0" standalone="no"?>
<!DOCTYPE svg PUBLIC "-//W3C//DTD SVG 20010904//EN"
 "http://www.w3.org/TR/2001/REC-SVG-20010904/DTD/svg10.dtd">
<svg version="1.0" xmlns="http://www.w3.org/2000/svg"
 width="500.000000pt" height="500.000000pt" viewBox="0 0 500.000000 500.000000"
 preserveAspectRatio="xMidYMid meet">
<metadata>
Created by potrace 1.14, written by Peter Selinger 2001-2017
</metadata>
<g transform="translate(0.000000,500.000000) scale(0.100000,-0.100000)"
fill="#000000" stroke="none">
<path d="M4496 3927 c-15 -11 -17 -17 -7 -35 14 -26 21 -27 45 -9 15 11 17 17
7 35 -14 26 -21 27 -45 9z"/>
<path d="M1776 3545 c-99 -157 -183 -285 -187 -285 -4 0 -67 32 -139 71 -72
39 -133 69 -135 67 -2 -2 18 -217 46 -478 27 -261 48 -481 47 -489 -2 -8 -93
79 -212 202 -115 119 -212 214 -216 212 -4 -2 -31 -58 -60 -125 -36 -82 -58
-120 -69 -120 -9 0 -124 25 -256 54 -132 30 -241 53 -243 51 -2 -2 35 -133 82
-292 47 -159 86 -294 86 -300 0 -5 -47 -22 -105 -38 -57 -15 -102 -31 -99 -36
3 -5 192 -162 420 -350 359 -296 414 -345 408 -363 -4 -11 -26 -76 -49 -143
-36 -103 -40 -123 -26 -123 9 0 214 31 456 69 l440 69 443 -71 c243 -38 445
-68 447 -65 2 2 -16 66 -40 142 -25 76 -43 142 -40 146 2 4 192 162 420 351
l417 344 -111 30 c-94 25 -110 32 -106 47 3 10 8 27 11 38 4 16 -13 9 -89 -35
-52 -30 -100 -55 -106 -57 -6 -2 -49 62 -96 142 -77 132 -83 146 -68 158 15
11 20 8 35 -23 10 -19 23 -35 28 -35 7 0 86 44 118 65 2 2 -7 19 -18 38 l-22
36 30 18 30 19 -39 64 c-26 44 -45 64 -57 63 -9 -1 -36 -5 -59 -9 -36 -5 -43
-3 -53 15 l-11 22 -39 -22 -38 -22 16 -34 c11 -23 21 -32 31 -28 28 11 32 10
47 -11 14 -21 13 -23 -42 -55 -55 -31 -57 -32 -71 -13 -28 37 -55 98 -46 101
6 2 18 10 28 17 17 12 16 17 -18 77 -65 116 -42 123 -226 -70 -90 -95 -165
-170 -167 -169 -1 2 21 224 51 493 29 270 51 492 50 494 -2 1 -65 -30 -141
-70 l-137 -72 -24 29 c-12 16 -23 32 -23 37 0 15 -22 6 -112 -44 l-91 -52 -18
24 c-10 13 -19 27 -19 31 0 4 19 20 43 34 23 15 43 28 45 29 2 1 -13 29 -33
61 -19 33 -35 65 -35 71 0 7 12 19 28 27 59 33 61 24 -34 180 -49 80 -91 145
-94 145 -3 1 -86 -128 -184 -284z"/>
<path d="M4328 3759 c-21 -11 -38 -22 -38 -25 0 -2 9 -22 20 -44 l20 -39 40
22 c22 12 40 25 40 29 0 6 -40 78 -43 78 -1 -1 -19 -10 -39 -21z"/>
<path d="M4605 3753 c-17 -9 -31 -17 -33 -18 -3 -3 25 -64 34 -74 2 -2 19 7
38 19 35 21 35 22 21 50 -20 39 -25 41 -60 23z"/>
<path d="M3933 3609 c-29 -17 -53 -35 -53 -39 0 -5 15 -33 33 -63 l33 -55 54
33 c33 19 54 38 54 48 -2 20 -52 107 -62 107 -4 0 -31 -14 -59 -31z"/>
<path d="M4185 3630 c3 -5 10 -10 16 -10 5 0 9 5 9 10 0 6 -7 10 -16 10 -8 0
-12 -4 -9 -10z"/>
<path d="M4522 3581 c-17 -10 -4 -41 14 -34 15 6 19 29 6 37 -4 2 -14 1 -20
-3z"/>
<path d="M2908 3569 c-19 -11 -14 -39 7 -39 19 0 28 17 18 34 -6 10 -13 12
-25 5z"/>
<path d="M3098 3522 l-47 -28 26 -44 c14 -25 27 -46 29 -48 2 -3 76 40 92 53
2 2 -48 95 -51 95 -1 0 -23 -13 -49 -28z"/>
<path d="M3508 3534 c-33 -17 -34 -30 -9 -63 18 -24 19 -24 49 -6 30 18 30 18
14 52 -18 38 -17 37 -54 17z"/>
<path d="M4272 3522 c-23 -18 -23 -18 -5 -41 17 -20 23 -22 41 -12 25 13 27
28 8 54 -16 21 -15 21 -44 -1z"/>
<path d="M4643 3498 c-18 -9 -20 -14 -11 -33 9 -20 14 -22 34 -13 27 13 29 18
12 40 -10 12 -18 14 -35 6z"/>
<path d="M3705 3448 c-28 -17 -51 -32 -53 -33 -2 -2 4 -15 12 -29 9 -14 23
-37 31 -51 l16 -25 52 26 c28 15 53 28 55 29 2 2 -53 102 -62 112 -1 1 -24
-12 -51 -29z"/>
<path d="M2827 3421 c-40 -26 -40 -25 -17 -65 21 -35 22 -35 50 -21 40 21 43
29 23 69 -19 41 -18 41 -56 17z"/>
<path d="M4454 3425 c-6 -15 2 -35 14 -35 18 1 32 18 26 33 -8 21 -33 22 -40
2z"/>
<path d="M3423 3393 c-15 -6 -17 -29 -3 -38 5 -3 17 -2 25 2 12 7 13 12 3 25
-7 9 -19 14 -25 11z"/>
<path d="M3162 3336 c-19 -10 -21 -14 -9 -30 11 -16 17 -17 36 -7 19 11 20 15
9 29 -7 9 -12 18 -13 19 0 1 -10 -4 -23 -11z"/>
<path d="M4316 3341 c-4 -5 -2 -12 3 -15 5 -4 12 -2 15 3 4 5 2 12 -3 15 -5 4
-12 2 -15 -3z"/>
<path d="M4510 3324 c0 -8 5 -12 10 -9 6 3 10 10 10 16 0 5 -4 9 -10 9 -5 0
-10 -7 -10 -16z"/>
<path d="M4458 3166 c-21 -12 -40 -25 -44 -28 -7 -7 38 -88 49 -88 13 0 87 40
87 47 0 7 -50 94 -53 92 -1 0 -19 -11 -39 -23z"/>
<path d="M3647 3144 l-57 -35 25 -43 c22 -38 23 -45 10 -56 -13 -11 -13 -16 2
-44 8 -17 17 -32 18 -34 3 -3 64 25 73 33 2 2 -1 12 -7 23 -10 18 -6 23 29 43
22 13 40 26 40 31 0 13 -61 118 -68 117 -4 0 -33 -16 -65 -35z"/>
<path d="M3233 2959 c-57 -34 -103 -67 -103 -75 0 -7 -14 -21 -30 -29 -19 -10
-28 -20 -24 -28 34 -56 35 -57 57 -42 32 23 45 18 66 -22 37 -69 34 -68 87
-37 27 16 49 24 51 17 2 -5 10 -18 17 -28 12 -16 17 -17 45 -6 35 15 38 26 14
61 -10 14 -13 25 -6 27 5 2 18 9 27 16 16 12 14 21 -36 110 -29 53 -55 96 -58
97 -3 0 -51 -28 -107 -61z"/>
<path d="M4275 2938 c-11 -6 -22 -12 -24 -14 -8 -7 22 -64 34 -64 7 0 23 8 35
18 22 18 22 19 5 45 -19 30 -22 31 -50 15z"/>
<path d="M3007 2878 c-15 -11 -16 -16 -5 -30 11 -14 16 -15 30 -4 14 11 15 16
5 30 -10 14 -15 15 -30 4z"/>
<path d="M3810 2860 c-25 -16 -49 -31 -54 -33 -7 -2 39 -99 60 -126 3 -3 110
54 122 64 7 6 -63 125 -73 124 -5 0 -30 -13 -55 -29z"/>
<path d="M4071 2786 c-13 -15 -5 -46 13 -46 27 1 38 17 27 39 -14 24 -24 26
-40 7z"/>
<path d="M2955 2710 c-3 -6 -4 -19 0 -30 5 -16 10 -17 30 -8 20 9 22 14 14 29
-11 21 -34 25 -44 9z"/>
<path d="M3490 2688 c-19 -12 -37 -23 -39 -24 -2 -2 6 -19 18 -38 l22 -34 -75
-43 c-41 -23 -74 -45 -72 -48 49 -89 99 -171 105 -171 4 0 24 57 44 128 21 73
44 131 53 137 50 31 49 31 30 60 -10 14 -15 33 -12 41 8 22 -33 17 -74 -8z"/>
<path d="M3959 2668 c-14 -9 -15 -16 -6 -35 12 -26 19 -28 46 -11 16 9 17 16
8 35 -11 25 -23 28 -48 11z"/>
<path d="M3246 2635 c-18 -13 -18 -16 -2 -40 19 -29 24 -30 50 -10 17 13 18
18 6 40 -15 28 -27 31 -54 10z"/>
<path d="M4026 2542 c-2 -4 -1 -14 4 -22 7 -11 12 -12 21 -3 6 6 8 16 5 22 -8
13 -23 14 -30 3z"/>
<path d="M3272 2270 c-32 -19 -32 -21 -18 -48 30 -55 30 -55 69 -32 42 25 44
31 20 71 -20 34 -28 35 -71 9z"/>
</g>
</svg>
